<mxfile host="app.diagrams.net" modified="2024-06-03T13:34:25.189Z" agent="Mozilla/5.0 (Windows NT 10.0; Win64; x64) AppleWebKit/537.36 (KHTML, like Gecko) Chrome/125.0.0.0 Safari/537.36" etag="5drmZc6NBHK78lvyhMhK" version="24.4.13" type="device">
  <diagram name="Page-1" id="bS_Od8NLfX0f7vFSI4nn">
    <mxGraphModel dx="5250" dy="2785" grid="1" gridSize="10" guides="1" tooltips="1" connect="1" arrows="1" fold="1" page="1" pageScale="1" pageWidth="2200" pageHeight="1600" math="0" shadow="0">
      <root>
        <mxCell id="0" />
        <mxCell id="1" parent="0" />
        <mxCell id="W7_b_flu5LM4LxyDTOQU-1" value="" style="rounded=0;whiteSpace=wrap;html=1;fillColor=#89CFF0;" vertex="1" parent="1">
          <mxGeometry y="2" width="2200" height="128" as="geometry" />
        </mxCell>
        <mxCell id="W7_b_flu5LM4LxyDTOQU-5" value="" style="rounded=0;whiteSpace=wrap;html=1;fillColor=#AFDBF5;gradientColor=none;" vertex="1" parent="1">
          <mxGeometry y="130" width="2200" height="1340" as="geometry" />
        </mxCell>
        <mxCell id="W7_b_flu5LM4LxyDTOQU-6" value="" style="rounded=1;whiteSpace=wrap;html=1;fillColor=#72A0C1;" vertex="1" parent="1">
          <mxGeometry x="633" y="238.75" width="1462" height="1122.5" as="geometry" />
        </mxCell>
        <mxCell id="W7_b_flu5LM4LxyDTOQU-7" value="" style="rounded=1;whiteSpace=wrap;html=1;fillColor=#72A0C1;" vertex="1" parent="1">
          <mxGeometry x="93" y="238.75" width="445" height="721.25" as="geometry" />
        </mxCell>
        <mxCell id="W7_b_flu5LM4LxyDTOQU-8" value="" style="rounded=1;whiteSpace=wrap;html=1;fillColor=#72A0C1;" vertex="1" parent="1">
          <mxGeometry x="93" y="1127.25" width="447" height="234" as="geometry" />
        </mxCell>
        <mxCell id="W7_b_flu5LM4LxyDTOQU-10" value="Text" style="text;html=1;align=center;verticalAlign=middle;resizable=0;points=[];autosize=1;strokeColor=none;fillColor=none;" vertex="1" parent="1">
          <mxGeometry x="1655" y="1348" width="50" height="30" as="geometry" />
        </mxCell>
        <mxCell id="W7_b_flu5LM4LxyDTOQU-11" value="" style="ellipse;whiteSpace=wrap;html=1;aspect=fixed;fillColor=#0050ef;strokeColor=#001DBC;fontColor=#ffffff;" vertex="1" parent="1">
          <mxGeometry x="2095" y="1210" width="105" height="105" as="geometry" />
        </mxCell>
        <mxCell id="W7_b_flu5LM4LxyDTOQU-14" value="" style="rounded=0;whiteSpace=wrap;html=1;fillColor=#89CFF0;" vertex="1" parent="1">
          <mxGeometry y="1472" width="2200" height="128" as="geometry" />
        </mxCell>
      </root>
    </mxGraphModel>
  </diagram>
</mxfile>
